<svg xmlns="http://www.w3.org/2000/svg" viewBox="0 0 29 29" id="always-allowed">
  <path d="m26.483 13.252-2.11-2.11a1.764 1.764 0 0 1-.517-1.248V6.909a1.764 1.764 0 0 0-1.765-1.765h-2.985a1.764 1.764 0 0 1-1.248-.516l-2.11-2.111a1.764 1.764 0 0 0-2.496 0l-2.11 2.11a1.764 1.764 0 0 1-1.248.517H6.909A1.764 1.764 0 0 0 5.144 6.91v2.985a1.764 1.764 0 0 1-.516 1.248l-2.111 2.11a1.764 1.764 0 0 0 0 2.496l2.11 2.11a1.764 1.764 0 0 1 .517 1.248v2.985a1.764 1.764 0 0 0 1.765 1.765h2.985a1.764 1.764 0 0 1 1.248.516l2.11 2.111a1.764 1.764 0 0 0 2.496 0l2.11-2.11a1.764 1.764 0 0 1 1.248-.517h2.985a1.764 1.764 0 0 0 1.765-1.765v-2.985a1.764 1.764 0 0 1 .516-1.248l2.111-2.11a1.764 1.764 0 0 0 0-2.496Zm-6.046-2.475-7.275 8.726a1 1 0 0 1-.723.36h-.045a1 1 0 0 1-.707-.293l-3.063-3.063a1 1 0 1 1 1.414-1.414l2.29 2.289L18.9 9.497a1 1 0 0 1 1.538 1.28Z"></path>
</svg>
