<svg xmlns="http://www.w3.org/2000/svg" viewBox="0 0 512 512" id="legal-document">
  <path fill-rule="evenodd" d="m319.124 242.36-11.799 11.799c-3.244 3.244-3.244 8.552-.001 11.797l57.175 57.174c3.244 3.244 8.552 3.244 11.797 0l11.799-11.799c3.244-3.244 3.244-8.552 0-11.797L330.92 242.36c-3.244-3.245-8.553-3.245-11.796 0zm-94.043 94.042L213.282 348.2c-3.243 3.244-3.244 8.552 0 11.796l57.175 57.175c3.244 3.244 8.552 3.244 11.797 0l11.799-11.798c3.244-3.244 3.244-8.552 0-11.797l-57.175-57.175c-3.244-3.244-8.552-3.244-11.797.001zm108.625 2.754c-9.008 7.652-15.975 14.619-23.627 23.627-3.386 3.986-6.906 8.372-10.797 13.394l-45.006-45.006c21.394-16.573 31.246-26.425 47.818-47.819l45.007 45.006c-5.022 3.892-9.408 7.412-13.395 10.798zm-12.569 35.333 119.711 125.595c2.294 2.407 5.074 3.717 8.263 3.895 3.191.178 5.902-.826 8.06-2.984l14.747-14.748c2.158-2.158 3.162-4.869 2.984-8.059-.178-3.19-1.488-5.97-3.895-8.264l-125.595-119.71c-.45.377-.899.756-1.347 1.137a186.486 186.486 0 0 0-21.792 21.792c-.381.447-.759.896-1.136 1.346zm-17.098 117.616-6.372-28.294c-.835-3.708-4.294-6.061-8.096-6.061h-91.094c-3.801 0-7.261 2.354-8.095 6.061l-6.372 28.294h120.029zM46.889 60.249l215.889 1.129v71.084c0 1.096.555 2.036 1.515 2.565.96.529 2.051.496 2.978-.089l26.742-16.902a2.877 2.877 0 0 1 3.201.047l24.002 16.181a2.864 2.864 0 0 0 3.012.157 2.866 2.866 0 0 0 1.553-2.585V61.707l34.824.182c5.358.028 9.71 4.402 9.71 9.76v187.478l-28.082-28.082c-9.489-9.488-24.935-9.488-34.423 0l-11.799 11.799c-7.591 7.591-9.11 18.997-4.554 28.113l-2.011 2.596c-6.518 8.414-13.232 16.667-20.766 24.201-7.534 7.534-15.788 14.249-24.203 20.767l-2.596 2.011c-9.116-4.556-20.522-3.037-28.113 4.554l-11.799 11.799c-9.488 9.488-9.489 24.935 0 34.423l57.175 57.175c9.488 9.488 24.935 9.487 34.423 0l11.799-11.798c7.592-7.592 9.11-18.997 4.554-28.114l1.137-1.468 59.259 62.172v33.068c0 5.376-4.385 9.761-9.761 9.761h-40.116l-7.163-31.809c-2.492-11.065-12.468-18.545-23.705-18.545h-91.094c-11.236 0-21.213 7.481-23.704 18.545l-7.163 31.809H46.838c-5.376 0-9.761-4.385-9.761-9.761V70.01c0-2.697.965-5.018 2.877-6.92 1.912-1.902 4.238-2.855 6.935-2.841zm323.427 281.31v10.288l-12.289-11.713 1.469-1.138a24.375 24.375 0 0 0 10.82 2.563zm-265.235 92.606h80.82a7.809 7.809 0 1 0 0-15.618h-80.82a7.809 7.809 0 1 0 0 15.618zm0-232.498h197.232a7.809 7.809 0 1 0 0-15.618H105.081a7.809 7.809 0 1 0 0 15.618zm0-58.125h80.82a7.809 7.809 0 1 0 0-15.618h-80.82a7.809 7.809 0 1 0 0 15.618zm0 116.25h148.543a7.809 7.809 0 1 0 0-15.618H105.081a7.809 7.809 0 1 0 0 15.618zm0 58.124h80.82a7.809 7.809 0 1 0 0-15.618h-80.82a7.809 7.809 0 1 0 0 15.618zm0 58.125h80.82a7.809 7.809 0 1 0 0-15.618h-80.82a7.809 7.809 0 1 0 0 15.618zM99.138 8l313.717 1.641c5.358.028 9.71 4.403 9.71 9.761v382.246l-36.249-34.55v-31.452c.442-.382.874-.782 1.294-1.202l11.799-11.799c9.488-9.489 9.488-24.936 0-34.424l-13.093-13.093V71.65c0-14.156-11.47-25.686-25.626-25.76L89.326 44.47V17.761c0-2.697.965-5.018 2.877-6.92C94.115 8.939 96.441 7.986 99.138 8z" clip-rule="evenodd"></path>
</svg>
