<svg xmlns="http://www.w3.org/2000/svg" enable-background="new 0 0 512 512" viewBox="0 0 512 512" id="bill">
  <g>
    <g>
      <g>
        <g>
          <path fill="#283954" d="M436,0H61C38.944,0,21,17.944,21,40v460c0,7.482,7.938,12.312,14.573,8.893l53.759-27.647
					l53.756,27.647c2.869,1.477,6.277,1.477,9.146,0l53.759-27.647l53.761,27.647c2.871,1.477,6.277,1.477,9.146,0l53.763-27.647
					l53.764,27.647C383.017,512.284,391,507.539,391,500V180h90c5.522,0,10-4.478,10-10V60C491,25.777,461.216,0,436,0z
					 M371,483.612l-43.764-22.505c-2.871-1.477-6.277-1.477-9.146,0l-53.763,27.647l-53.761-27.647
					c-2.869-1.477-6.277-1.477-9.146,0l-53.759,27.647l-53.756-27.647c-2.869-1.477-6.277-1.477-9.146,0L41,483.612V40
					c0-11.028,8.972-20,20-20h325.327C376.805,30.624,371,44.645,371,60C371,70.12,371,471.703,371,483.612z M471,160h-80
					c0-11.899,0-87.983,0-100c0-22.056,17.944-40,40-40s40,17.944,40,40V160z"></path>
          <path fill="#3a98ff" d="M341 280H71c-5.522 0-10 4.478-10 10v140c0 5.522 4.478 10 10 10h270c5.522 0 10-4.478 10-10V290C351 284.478 346.522 280 341 280zM331 330H171v-30h160V330zM171 350h40v70h-40V350zM231 350h40v70h-40V350zM81 300h70v120H81V300zM291 420v-70h40v70H291zM71 260h40c5.522 0 10-4.478 10-10v-40c0-5.522-4.478-10-10-10H71c-5.522 0-10 4.478-10 10v40C61 255.522 65.478 260 71 260zM81 220h20v20H81V220zM341 200H151c-5.522 0-10 4.478-10 10v40c0 5.522 4.478 10 10 10h190c5.522 0 10-4.478 10-10v-40C351 204.478 346.522 200 341 200zM331 240H161v-20h170V240zM341 40H71c-5.522 0-10 4.478-10 10v40c0 5.522 4.478 10 10 10h270c5.522 0 10-4.478 10-10V50C351 44.478 346.522 40 341 40zM331 80H81V60h250V80zM71 180h140c5.522 0 10-4.478 10-10s-4.478-10-10-10H71c-5.522 0-10 4.478-10 10S65.478 180 71 180zM341 120H71c-5.522 0-10 4.478-10 10s4.478 10 10 10h270c5.522 0 10-4.478 10-10S346.522 120 341 120z"></path>
        </g>
      </g>
    </g>
  </g>
</svg>
