<svg xmlns="http://www.w3.org/2000/svg" viewBox="0 0 168 168" id="join">
  <path fill="#2d4356" d="M127.99994,96.49219a19.44981,19.44981,0,0,0-13.1955-18.5578,9.00039,9.00039,0,1,0-11.60577.00208,18.89839,18.89839,0,0,0-7.14239,4.30969A24.18053,24.18053,0,0,0,90.21,79.81567a11.99976,11.99976,0,1,0-12.42065,0,24.17454,24.17454,0,0,0-5.84595,2.43042,18.89824,18.89824,0,0,0-7.14215-4.30963,8.99965,8.99965,0,1,0-11.60583-.00208,19.44973,19.44973,0,0,0-13.1955,18.5578V102H59.192a27.67588,27.67588,0,0,0-.19208,3.19818V112h50v-6.80182A27.67588,27.67588,0,0,0,108.80786,102h19.19208Zm-19-30.42969a5,5,0,1,1-5,5A5.00592,5.00592,0,0,1,108.99994,66.0625Zm-33,3.5a8,8,0,1,1,8,8A8.00921,8.00921,0,0,1,75.99994,69.5625Zm-17-3.5a5,5,0,1,1-5,5A5.00589,5.00589,0,0,1,58.99994,66.0625ZM43.99994,98V96.49219A15.26963,15.26963,0,0,1,58.99994,81a14.5932,14.5932,0,0,1,9.5575,3.60327A26.305,26.305,0,0,0,59.96326,98Zm61,10h-42v-2.80182C62.99994,92.958,72.42035,83,83.99994,83c11.5791,0,21,9.958,21,22.19818Zm19-10H108.03656a26.30667,26.30667,0,0,0-8.59442-13.39661A14.59311,14.59311,0,0,1,108.99994,81a15.26932,15.26932,0,0,1,15,15.49219Z"></path>
  <path fill="#2d4356" d="M26.04047 89.15717a1.9888 1.9888 0 0 0 .98547.72351l.73328 1.0343.97961-1.23822a1.9826 1.9826 0 0 0 .50134-.43555l6.32819-8a2.00014 2.00014 0 0 0-3.13684-2.48242l-2.37476 3.00189a53.98886 53.98886 0 0 1 107.0022-7.747h.15088l.83014-1.1709a1.99966 1.99966 0 0 1 1.579-.8418 1.97189 1.97189 0 0 1 1.18182.36078 57.97909 57.97909 0 0 0-114.75647 9.8844l-2.41315-3.40338a2 2 0 1 0-3.26257 2.31439zM158 10a3 3 0 1 0-3-3A3.00344 3.00344 0 0 0 158 10zm0-4.5A1.5 1.5 0 1 1 156.5 7 1.50148 1.50148 0 0 1 158 5.5zM143 60a3 3 0 1 0-3-3A3.00344 3.00344 0 0 0 143 60zm0-4.5a1.5 1.5 0 1 1-1.5 1.5A1.50148 1.50148 0 0 1 143 55.5zM33 8a3 3 0 1 0-3-3A3.00344 3.00344 0 0 0 33 8zm0-4.5A1.5 1.5 0 1 1 31.5 5 1.50148 1.50148 0 0 1 33 3.5zM128 5a2 2 0 1 0-2-2A2.00229 2.00229 0 0 0 128 5zm0-3a1 1 0 1 1-1 1A1.001 1.001 0 0 1 128 2zM78 20a2 2 0 1 0-2-2A2.00229 2.00229 0 0 0 78 20zm0-3a1 1 0 1 1-1 1A1.001 1.001 0 0 1 78 17zM28 53a2 2 0 1 0-2-2A2.00229 2.00229 0 0 0 28 53zm0-3a1 1 0 1 1-1 1A1.001 1.001 0 0 1 28 50z"></path>
  <circle cx="2" cy="143" r="2" fill="#2d4356"></circle>
  <path fill="#2d4356" d="M11 141H8a2 2 0 0 0 0 4h3a2 2 0 0 0 0-4zM160 141h-3a2 2 0 0 0 0 4h3a2 2 0 0 0 0-4z"></path>
  <circle cx="166" cy="143" r="2" fill="#2d4356"></circle>
  <path fill="#2d4356" d="M150.72131,141H94.70654a58.00242,58.00242,0,0,0,47.2403-54.9l2.48468,3.14124a2.00014,2.00014,0,0,0,3.13684-2.48242l-6.32819-8a2.00117,2.00117,0,0,0-3.2002.084l-5.67181,8a2.00045,2.00045,0,0,0,3.26355,2.31439l2.32043-3.27271A53.98526,53.98526,0,0,1,30.84674,93.46021l-1.60657,2.031a2.001,2.001,0,0,1-1.5683.75879c-.01764,0-.03473,0-.05286-.001a1.96853,1.96853,0,0,1-.32227-.04639A58.05573,58.05573,0,0,0,73.27087,141H17.27869a2.017,2.017,0,1,0,0,4H150.72131a2.017,2.017,0,1,0,0-4Z"></path>
  <polygon fill="#0bceb2" points="4.583 34.011 6.07 32.056 5.131 31.524 4.177 33.714 4.145 33.714 3.175 31.539 2.22 32.087 3.691 33.996 3.691 34.027 1.391 33.73 1.391 34.794 3.707 34.497 3.707 34.528 2.22 36.436 3.112 37 4.13 34.794 4.16 34.794 5.099 36.984 6.085 36.421 4.583 34.543 4.583 34.512 6.945 34.794 6.945 33.73 4.583 34.042 4.583 34.011"></polygon>
  <polygon fill="#0bceb2" points="40.281 24.769 41.137 23.643 40.597 23.337 40.047 24.598 40.029 24.598 39.471 23.345 38.92 23.661 39.768 24.76 39.768 24.778 38.443 24.607 38.443 25.22 39.777 25.049 39.777 25.067 38.92 26.166 39.434 26.49 40.02 25.22 40.038 25.22 40.578 26.481 41.146 26.157 40.281 25.075 40.281 25.057 41.641 25.22 41.641 24.607 40.281 24.787 40.281 24.769"></polygon>
  <polygon fill="#0bceb2" points="160 34.713 160 33.67 157.683 33.977 157.683 33.946 159.142 32.028 158.221 31.506 157.285 33.654 157.253 33.654 156.302 31.521 155.365 32.059 156.808 33.931 156.808 33.962 154.552 33.67 154.552 34.713 156.823 34.422 156.823 34.453 155.365 36.325 156.24 36.878 157.238 34.713 157.268 34.713 158.189 36.862 159.156 36.31 157.683 34.468 157.683 34.437 160 34.713"></polygon>
  <polygon fill="#0bceb2" points="116.702 29.023 115.444 30.638 116.198 31.115 117.06 29.248 117.085 29.248 117.88 31.101 118.714 30.625 117.443 29.036 117.443 29.009 119.442 29.248 119.442 28.348 117.443 28.612 117.443 28.586 118.701 26.931 117.907 26.481 117.099 28.334 117.073 28.334 116.252 26.494 115.444 26.958 116.689 28.573 116.689 28.599 114.742 28.348 114.742 29.248 116.702 28.996 116.702 29.023"></polygon>
  <path fill="#0bceb2" d="M118.15387 150h-8.30774a2.00641 2.00641 0 0 0 0 4h8.30774a2.00641 2.00641 0 0 0 0-4zM58.15387 150H49.84613a2.00641 2.00641 0 0 0 0 4h8.30774a2.00641 2.00641 0 0 0 0-4zM104 150H64a2 2 0 0 0 0 4H79.94v2H72a2 2 0 0 0 0 4H97a2 2 0 0 0 0-4H88.06v-2H104a2 2 0 0 0 0-4z"></path>
</svg>
