<svg xmlns="http://www.w3.org/2000/svg" viewBox="0 0 24 24" id="payment">
  <path fill="#232323" d="M14,22.75H4A2.752,2.752,0,0,1,1.25,20V4A2.752,2.752,0,0,1,4,1.25H14A2.752,2.752,0,0,1,16.75,4V5a.75.75,0,0,1-1.5,0V4A1.252,1.252,0,0,0,14,2.75H4A1.252,1.252,0,0,0,2.75,4V20A1.252,1.252,0,0,0,4,21.25H14A1.252,1.252,0,0,0,15.25,20V18a.75.75,0,0,1,1.5,0v2A2.752,2.752,0,0,1,14,22.75Z"></path>
  <path fill="#232323" d="M10 5.75H8a.75.75 0 010-1.5h2a.75.75 0 010 1.5zM10 19.75H2a.75.75 0 010-1.5h8a.75.75 0 010 1.5z"></path>
  <path fill="#7fbde7" d="M18,17.75H9A2.752,2.752,0,0,1,6.25,15V9A2.752,2.752,0,0,1,9,6.25h9A2.752,2.752,0,0,1,20.75,9v6A2.752,2.752,0,0,1,18,17.75Zm-9-10A1.252,1.252,0,0,0,7.75,9v6A1.252,1.252,0,0,0,9,16.25h9A1.252,1.252,0,0,0,19.25,15V9A1.252,1.252,0,0,0,18,7.75Z"></path>
  <path fill="#7fbde7" d="M20 10.75H7a.75.75 0 010-1.5H20a.75.75 0 010 1.5zM17 14.75H15a.75.75 0 010-1.5h2a.75.75 0 010 1.5z"></path>
</svg>
