<svg xmlns="http://www.w3.org/2000/svg" viewBox="0 0 32 32" id="comment">
  <g>
    <path d="M22 2H10a8 8 0 0 0-8 8v4a8 8 0 0 0 7 7.94V29a1 1 0 0 0 .77 1 .91.91 0 0 0 .23 0 1 1 0 0 0 .89-.55L14.62 22H22a8 8 0 0 0 8-8v-4a8 8 0 0 0-8-8Zm6 12a6 6 0 0 1-6 6h-8a1 1 0 0 0-.89.55L11 24.76V21a1 1 0 0 0-1-1 6 6 0 0 1-6-6v-4a6 6 0 0 1 6-6h12a6 6 0 0 1 6 6Z"></path>
    <path d="M24 15H8a1 1 0 0 0 0 2h16a1 1 0 0 0 0-2zm0-4H8a1 1 0 0 0 0 2h16a1 1 0 0 0 0-2zm0-4H8a1 1 0 0 0 0 2h16a1 1 0 0 0 0-2z"></path>
  </g>
</svg>
