<svg xmlns="http://www.w3.org/2000/svg" xmlns:xlink="http://www.w3.org/1999/xlink" viewBox="0 0 24 24" id="share">
  <defs>
    <linearGradient id="a" x1="19.472" x2="4.528" y1="23.477" y2="8.533" gradientUnits="userSpaceOnUse">
      <stop offset="0" stop-color="#60efff"></stop>
      <stop offset=".117" stop-color="#5ff0f1"></stop>
      <stop offset=".503" stop-color="#5df5ca"></stop>
      <stop offset=".811" stop-color="#5cf8b1"></stop>
      <stop offset="1" stop-color="#5cfaa9"></stop>
    </linearGradient>
    <linearGradient xlink:href="#a" id="b" x1="16.561" x2="14.439" y1="9.561" y2="7.439"></linearGradient>
    <linearGradient xlink:href="#a" id="c" x1="11.561" x2="9.439" y1="6.561" y2="4.439"></linearGradient>
    <linearGradient xlink:href="#a" id="d" x1="12.561" x2="10.439" y1="13.561" y2="11.439"></linearGradient>
  </defs>
  <g>
    <path fill="url(#a)" d="M23,16c0,1.2-.12,2.29-.29,3.25-.3,1.68-1.66,2.96-3.35,3.21-2.16,.32-4.63,.54-7.36,.54s-5.2-.22-7.36-.54c-1.69-.25-3.05-1.53-3.35-3.21-.17-.96-.29-2.05-.29-3.25s.12-2.29,.29-3.25c.18-1.01,.7401-1.87,1.53-2.44l1.18,1.07v.01l5.31,4.82c1.52,1.39,3.86,1.39,5.38,0l5.31-4.82v-.01l1.18-1.07c.79,.57,1.35,1.43,1.53,2.44,.17,.96,.29,2.05,.29,3.25Z"></path>
    <circle cx="15.5" cy="8.5" r="1.5" fill="url(#b)"></circle>
    <circle cx="10.5" cy="5.5" r="1.5" fill="url(#c)"></circle>
    <circle cx="11.5" cy="12.5" r="1.5" fill="url(#d)"></circle>
  </g>
  <g>
    <path fill="#212529" d="M23.6943,12.5747c-.277-1.5559-1.285-2.8615-2.6943-3.5533V3c0-1.6543-1.3457-3-3-3H6c-1.6543,0-3,1.3457-3,3v6.0214c-1.4094,.692-2.4175,1.9976-2.6948,3.5543-.2026,1.1445-.3052,2.2969-.3052,3.4243s.1025,2.2798,.3057,3.4258c.373,2.0913,2.0562,3.708,4.188,4.0234,2.4683,.3652,4.9937,.5508,7.5063,.5508s5.0381-.1855,7.5063-.5508c2.1318-.3154,3.8149-1.9321,4.1885-4.0249,.2026-1.1445,.3052-2.2969,.3052-3.4243s-.1025-2.2798-.3057-3.4253ZM6,2h12c.5513,0,1,.4487,1,1v7.9406l-4.9849,4.5316c-1.1309,1.0332-2.9014,1.0322-4.0322-.002l-4.9829-4.5297V3c0-.5513,.4487-1,1-1Zm15.7256,17.0742c-.2222,1.2441-1.2314,2.207-2.5122,2.3965-4.7432,.7021-9.6836,.7021-14.4268,0-1.2808-.1895-2.29-1.1523-2.5117-2.395-.1826-1.0298-.2749-2.0645-.2749-3.0757s.0923-2.0459,.2744-3.0747c.0825-.4636,.2924-.8784,.5707-1.2409l5.7902,5.2634c.9438,.8633,2.1548,1.2944,3.3657,1.2944,1.21,0,2.4194-.4307,3.3618-1.2925l5.7922-5.2653c.2781,.3623,.4879,.7769,.5701,1.2399,.1826,1.0298,.2749,2.0645,.2749,3.0757s-.0923,2.0459-.2744,3.0742Z"></path>
    <path fill="#212529" d="M15.5,6c-.5836,0-1.1142,.2094-1.5401,.5458l-.9678-.9678c.0009-.0266,.0079-.0513,.0079-.0781,0-1.3784-1.1216-2.5-2.5-2.5s-2.5,1.1216-2.5,2.5,1.1216,2.5,2.5,2.5c.5836,0,1.1142-.2094,1.5401-.5458l.9678,.9678c-.0009,.0266-.0079,.0513-.0079,.0781,0,.3214,.0661,.6264,.1771,.9089l-.7682,.7682c-.2825-.111-.5875-.1771-.9089-.1771-1.3784,0-2.5,1.1216-2.5,2.5s1.1216,2.5,2.5,2.5,2.5-1.1216,2.5-2.5c0-.3214-.0661-.6264-.1771-.9089l.7682-.7682c.2825,.111,.5875,.1771,.9089,.1771,1.3784,0,2.5-1.1216,2.5-2.5s-1.1216-2.5-2.5-2.5Zm-5,0c-.2759,0-.5-.2241-.5-.5s.2241-.5,.5-.5,.5,.2241,.5,.5-.2241,.5-.5,.5Zm1,7c-.2759,0-.5-.2241-.5-.5s.2241-.5,.5-.5,.5,.2241,.5,.5-.2241,.5-.5,.5Zm4-4c-.2759,0-.5-.2241-.5-.5s.2241-.5,.5-.5,.5,.2241,.5,.5-.2241,.5-.5,.5Z"></path>
  </g>
</svg>
